<mxfile host="Electron" modified="2024-03-13T04:25:08.162Z" agent="Mozilla/5.0 (Windows NT 10.0; Win64; x64) AppleWebKit/537.36 (KHTML, like Gecko) draw.io/24.0.4 Chrome/120.0.6099.109 Electron/28.1.0 Safari/537.36" etag="Rauln_eRTR5aJz-mUiSI" version="24.0.4" type="device">
  <diagram name="Page-1" id="mJiHtR6092hSN3zeJ4r4">
    <mxGraphModel dx="880" dy="524" grid="1" gridSize="10" guides="1" tooltips="1" connect="1" arrows="1" fold="1" page="1" pageScale="1" pageWidth="850" pageHeight="1100" math="0" shadow="0">
      <root>
        <mxCell id="0" />
        <mxCell id="1" parent="0" />
        <mxCell id="5lPfIdOYdFfUMrPt4HcZ-2" style="edgeStyle=orthogonalEdgeStyle;rounded=0;orthogonalLoop=1;jettySize=auto;html=1;endArrow=none;endFill=0;startArrow=diamond;startFill=0;startSize=12;" edge="1" parent="1" source="e4dGOHBsxu-X1obNb4UQ-1" target="5lPfIdOYdFfUMrPt4HcZ-1">
          <mxGeometry relative="1" as="geometry" />
        </mxCell>
        <mxCell id="e4dGOHBsxu-X1obNb4UQ-1" value="&lt;p style=&quot;margin:0px;margin-top:4px;text-align:center;&quot;&gt;&lt;b&gt;&lt;font face=&quot;Verdana&quot; style=&quot;font-size: 12px;&quot;&gt;Client&lt;/font&gt;&lt;/b&gt;&lt;/p&gt;&lt;hr size=&quot;1&quot; style=&quot;border-style:solid;&quot;&gt;&lt;div style=&quot;height:2px;&quot;&gt;&lt;/div&gt;&lt;hr size=&quot;1&quot; style=&quot;border-style:solid;&quot;&gt;&lt;div style=&quot;height:2px;&quot;&gt;&lt;/div&gt;" style="verticalAlign=top;align=left;overflow=fill;html=1;whiteSpace=wrap;" parent="1" vertex="1">
          <mxGeometry x="20" y="100" width="140" height="60" as="geometry" />
        </mxCell>
        <mxCell id="5lPfIdOYdFfUMrPt4HcZ-4" style="edgeStyle=orthogonalEdgeStyle;rounded=0;orthogonalLoop=1;jettySize=auto;html=1;endArrow=none;endFill=0;startArrow=diamond;startFill=0;startSize=12;" edge="1" parent="1" source="5lPfIdOYdFfUMrPt4HcZ-1" target="5lPfIdOYdFfUMrPt4HcZ-3">
          <mxGeometry relative="1" as="geometry" />
        </mxCell>
        <mxCell id="5lPfIdOYdFfUMrPt4HcZ-1" value="&lt;p style=&quot;margin:0px;margin-top:4px;text-align:center;&quot;&gt;&lt;b&gt;Abstraction&lt;/b&gt;&lt;/p&gt;&lt;hr size=&quot;1&quot; style=&quot;border-style:solid;&quot;&gt;&lt;p style=&quot;margin:0px;margin-left:4px;&quot;&gt;&lt;br&gt;&lt;/p&gt;&lt;hr size=&quot;1&quot; style=&quot;border-style:solid;&quot;&gt;&lt;p style=&quot;margin:0px;margin-left:4px;&quot;&gt;+ Operation()&lt;/p&gt;" style="verticalAlign=top;align=left;overflow=fill;html=1;whiteSpace=wrap;" vertex="1" parent="1">
          <mxGeometry x="240" y="20" width="160" height="90" as="geometry" />
        </mxCell>
        <mxCell id="5lPfIdOYdFfUMrPt4HcZ-3" value="&lt;p style=&quot;margin:0px;margin-top:4px;text-align:center;&quot;&gt;&lt;i&gt;&amp;lt;&amp;lt;Interface&amp;gt;&amp;gt;&lt;/i&gt;&lt;br&gt;&lt;b&gt;IBridge&lt;/b&gt;&lt;/p&gt;&lt;hr size=&quot;1&quot; style=&quot;border-style:solid;&quot;&gt;&lt;p style=&quot;margin:0px;margin-left:4px;&quot;&gt;&lt;br&gt;&lt;/p&gt;&lt;hr size=&quot;1&quot; style=&quot;border-style:solid;&quot;&gt;&lt;p style=&quot;margin:0px;margin-left:4px;&quot;&gt;+ OperationImp()&lt;br&gt;&lt;/p&gt;" style="verticalAlign=top;align=left;overflow=fill;html=1;whiteSpace=wrap;" vertex="1" parent="1">
          <mxGeometry x="570" y="72.5" width="190" height="105" as="geometry" />
        </mxCell>
        <mxCell id="5lPfIdOYdFfUMrPt4HcZ-5" value="bridge" style="text;html=1;align=center;verticalAlign=middle;resizable=0;points=[];autosize=1;strokeColor=none;fillColor=none;" vertex="1" parent="1">
          <mxGeometry x="514" y="98" width="60" height="30" as="geometry" />
        </mxCell>
        <mxCell id="5lPfIdOYdFfUMrPt4HcZ-7" style="edgeStyle=orthogonalEdgeStyle;rounded=0;orthogonalLoop=1;jettySize=auto;html=1;entryX=0.25;entryY=1;entryDx=0;entryDy=0;dashed=1;endArrow=block;endFill=0;endSize=12;" edge="1" parent="1" source="5lPfIdOYdFfUMrPt4HcZ-6" target="5lPfIdOYdFfUMrPt4HcZ-3">
          <mxGeometry relative="1" as="geometry" />
        </mxCell>
        <mxCell id="5lPfIdOYdFfUMrPt4HcZ-6" value="&lt;p style=&quot;margin:0px;margin-top:4px;text-align:center;&quot;&gt;&lt;b&gt;ImplementationA&lt;/b&gt;&lt;/p&gt;&lt;hr size=&quot;1&quot; style=&quot;border-style:solid;&quot;&gt;&lt;p style=&quot;margin:0px;margin-left:4px;&quot;&gt;&lt;br&gt;&lt;/p&gt;&lt;hr size=&quot;1&quot; style=&quot;border-style:solid;&quot;&gt;&lt;p style=&quot;margin:0px;margin-left:4px;&quot;&gt;+ OperationImp()&lt;/p&gt;" style="verticalAlign=top;align=left;overflow=fill;html=1;whiteSpace=wrap;" vertex="1" parent="1">
          <mxGeometry x="380" y="190" width="160" height="90" as="geometry" />
        </mxCell>
        <mxCell id="5lPfIdOYdFfUMrPt4HcZ-10" style="edgeStyle=orthogonalEdgeStyle;rounded=0;orthogonalLoop=1;jettySize=auto;html=1;entryX=0.75;entryY=1;entryDx=0;entryDy=0;endArrow=block;endFill=0;endSize=12;dashed=1;" edge="1" parent="1" source="5lPfIdOYdFfUMrPt4HcZ-8" target="5lPfIdOYdFfUMrPt4HcZ-3">
          <mxGeometry relative="1" as="geometry" />
        </mxCell>
        <mxCell id="5lPfIdOYdFfUMrPt4HcZ-8" value="&lt;p style=&quot;margin:0px;margin-top:4px;text-align:center;&quot;&gt;&lt;b&gt;ImplementationB&lt;/b&gt;&lt;/p&gt;&lt;hr size=&quot;1&quot; style=&quot;border-style:solid;&quot;&gt;&lt;p style=&quot;margin:0px;margin-left:4px;&quot;&gt;&lt;br&gt;&lt;/p&gt;&lt;hr size=&quot;1&quot; style=&quot;border-style:solid;&quot;&gt;&lt;p style=&quot;margin:0px;margin-left:4px;&quot;&gt;+ OperationImp()&lt;/p&gt;" style="verticalAlign=top;align=left;overflow=fill;html=1;whiteSpace=wrap;" vertex="1" parent="1">
          <mxGeometry x="514" y="350" width="160" height="90" as="geometry" />
        </mxCell>
        <mxCell id="5lPfIdOYdFfUMrPt4HcZ-12" style="edgeStyle=orthogonalEdgeStyle;rounded=0;orthogonalLoop=1;jettySize=auto;html=1;entryX=0.5;entryY=1;entryDx=0;entryDy=0;endArrow=block;endFill=0;endSize=12;" edge="1" parent="1" source="5lPfIdOYdFfUMrPt4HcZ-11" target="5lPfIdOYdFfUMrPt4HcZ-1">
          <mxGeometry relative="1" as="geometry" />
        </mxCell>
        <mxCell id="5lPfIdOYdFfUMrPt4HcZ-11" value="&lt;p style=&quot;margin:0px;margin-top:4px;text-align:center;&quot;&gt;&lt;b&gt;ExtendAbstraction&lt;/b&gt;&lt;/p&gt;&lt;hr size=&quot;1&quot; style=&quot;border-style:solid;&quot;&gt;&lt;p style=&quot;margin:0px;margin-left:4px;&quot;&gt;&lt;br&gt;&lt;/p&gt;&lt;hr size=&quot;1&quot; style=&quot;border-style:solid;&quot;&gt;&lt;p style=&quot;margin:0px;margin-left:4px;&quot;&gt;+ Operation()&lt;/p&gt;" style="verticalAlign=top;align=left;overflow=fill;html=1;whiteSpace=wrap;" vertex="1" parent="1">
          <mxGeometry x="160" y="280" width="160" height="90" as="geometry" />
        </mxCell>
      </root>
    </mxGraphModel>
  </diagram>
</mxfile>
